<?xml version="1.0" encoding="UTF-8"?>
<!DOCTYPE svg PUBLIC "-//W3C//DTD SVG 1.1//EN" "http://www.w3.org/Graphics/SVG/1.1/DTD/svg11.dtd">
<!-- Creator: CorelDRAW (Versão OEM) -->
<svg xmlns="http://www.w3.org/2000/svg" xml:space="preserve" width="327.441mm" height="247.914mm" version="1.1" style="shape-rendering:geometricPrecision; text-rendering:geometricPrecision; image-rendering:optimizeQuality; fill-rule:evenodd; clip-rule:evenodd"
viewBox="0 0 32840.8 24864.69"
 xmlns:xlink="http://www.w3.org/1999/xlink"
 xmlns:xodm="http://www.corel.com/coreldraw/odm/2003">
 <defs>
  <style type="text/css">
   <![CDATA[
    .fil4 {fill:url(#id0)}
    .fil5 {fill:url(#id1)}
    .fil3 {fill:url(#id2);fill-rule:nonzero}
    .fil0 {fill:url(#id3);fill-rule:nonzero}
    .fil2 {fill:url(#id4);fill-rule:nonzero}
    .fil1 {fill:url(#id5);fill-rule:nonzero}
   ]]>
  </style>
  <linearGradient id="id0" gradientUnits="userSpaceOnUse" x1="4519.7" y1="24118.5" x2="7201.25" y2="9799.17">
   <stop offset="0" style="stop-opacity:1; stop-color:#B06D1C"/>
   <stop offset="0.501961" style="stop-opacity:1; stop-color:#FBF289"/>
   <stop offset="1" style="stop-opacity:1; stop-color:#B06D1C"/>
  </linearGradient>
  <linearGradient id="id1" gradientUnits="userSpaceOnUse" x1="11422.68" y1="7408.84" x2="12803.33" y2="-6559.66">
   <stop offset="0" style="stop-opacity:1; stop-color:#B06D1C"/>
   <stop offset="0.541176" style="stop-opacity:1; stop-color:#FBF289"/>
   <stop offset="1" style="stop-opacity:1; stop-color:#B06D1C"/>
  </linearGradient>
  <linearGradient id="id2" gradientUnits="userSpaceOnUse" xlink:href="#id0" x1="10916.99" y1="3820.67" x2="11118.74" y2="-3330.74">
  </linearGradient>
  <linearGradient id="id3" gradientUnits="userSpaceOnUse" x1="12274.97" y1="24864.69" x2="12275.01" y2="23224.52">
   <stop offset="0" style="stop-opacity:1; stop-color:#747273"/>
   <stop offset="0.501961" style="stop-opacity:1; stop-color:white"/>
   <stop offset="1" style="stop-opacity:1; stop-color:#747273"/>
  </linearGradient>
  <linearGradient id="id4" gradientUnits="userSpaceOnUse" x1="5190.49" y1="20722.84" x2="5556.31" y2="16370.13">
   <stop offset="0" style="stop-opacity:1; stop-color:#B06D1C"/>
   <stop offset="0.501961" style="stop-opacity:1; stop-color:#FCF279"/>
   <stop offset="1" style="stop-opacity:1; stop-color:#9A6020"/>
  </linearGradient>
  <linearGradient id="id5" gradientUnits="userSpaceOnUse" xlink:href="#id0" x1="6221.39" y1="12857.92" x2="13208.12" y2="4258.06">
  </linearGradient>
 </defs>
 <g id="Camada_x0020_1">
  <metadata id="CorelCorpID_0Corel-Layer"/>
  <g id="_2571505370064">
   <g>
    <path class="fil0" d="M9092.04 23224.52l115 1640.17 -340.84 0 -24.35 -355.48 -443.66 0 -165.45 355.48 -340.45 0 714.91 -1530.25c11.26,-30.84 33.68,-56.15 66.48,-75.92 32.8,-19.77 68.67,-31.23 106.78,-34l216.69 0 94.9 0zm16005.4 295.93l2597.78 0 -72.18 191.68 -2525.6 0 0 -191.68zm0 426.68l2386.71 0 -72.18 191.68 -2314.53 0 0 -191.68zm0 435.75l2171.09 0 -72.18 191.68 -2098.9 0 0 -191.68zm-17429.47 -862.43l-2597.78 0 72.18 191.68 2525.6 0 0 -191.68zm0 426.68l-2386.71 0 72.18 191.68 2314.53 0 0 -191.68zm0 435.75l-2171.09 0 72.18 191.68 2098.9 0 0 -191.68zm9203.59 -1158.36c-38.93,2.77 -77.33,14.23 -114.68,34 -37.36,19.78 -62.43,45.08 -74.83,75.92l-180.14 859.62 -140.53 670.63 328.99 0 140.53 -670.63 501.39 0c88.96,0 174.57,-21.74 256.93,-65.63 82.66,-43.5 153.45,-102.02 212.36,-175.57 58.82,-73.15 98.04,-154.61 116.84,-244.36 18.56,-88.57 13.49,-170.03 -14.67,-243.18 -28.08,-73.56 -74.34,-132.07 -138.77,-175.57 -64.05,-43.5 -140.54,-65.24 -229.51,-65.24l-501.39 0 -162.52 0zm93.58 328.98l501.39 0c42.7,0 75.93,15.02 99.99,45.47 24.07,30.45 31.78,67.22 22.92,109.53 -9.03,43.1 -32.24,80.27 -69.07,110.72 -36.82,30.44 -76.44,45.87 -119.13,45.87l-334.92 0c-38.93,2.77 -77.33,14.23 -114.69,34.01 -37.35,19.77 -62.43,45.07 -74.82,75.91l23.04 -109.92 65.29 -311.59zm2262.68 -328.98l96.78 1640.17 -340.84 0 -20.41 -355.48 -443.66 0 -169.39 355.48 -340.45 0 731.91 -1530.25c11.6,-30.84 34.3,-56.15 67.32,-75.92 33.01,-19.77 69.02,-31.23 107.17,-34l216.69 0 94.9 0zm-551.01 955.72l-51.11 109.92c12,-30.84 34.69,-56.16 67.7,-75.92 33.01,-19.77 69.03,-31.23 108.36,-34l142.35 0 -27.96 -500.59 -239.34 500.59zm1746.72 -955.72c-38.93,2.77 -77.33,14.23 -114.68,34 -37.36,19.78 -62.43,45.08 -74.83,75.92l-180.14 859.62 -140.53 670.63 328.99 0 140.53 -670.63 216.29 0 248.95 670.63 379.99 0 -252.74 -678.92c78.75,-15.43 152.66,-45.47 220.95,-90.16 68.36,-45.08 127.1,-100.84 175.98,-168.06 48.88,-67.22 81.61,-140.37 98.1,-219.06 18.56,-88.57 13.49,-170.03 -14.67,-243.18 -28.08,-73.56 -74.34,-132.07 -138.77,-175.57 -64.05,-43.5 -140.54,-65.24 -229.51,-65.24l-501.39 0 -162.52 0zm93.58 328.98l501.39 0c42.7,0 75.93,15.02 99.99,45.47 24.07,30.45 31.78,67.22 22.92,109.53 -9.03,43.1 -32.24,80.27 -69.07,110.72 -36.82,30.44 -76.44,45.87 -119.13,45.87l-334.92 0c-38.93,2.77 -77.33,14.23 -114.69,34.01 -37.35,19.77 -62.43,45.07 -74.82,75.91l23.04 -109.92 65.29 -311.59zm2030.17 -328.98l-220.25 0c-38.93,2.77 -77.33,14.23 -114.68,34 -37.36,19.78 -62.43,45.08 -74.83,75.92l-45.91 219.06 386.72 0 -274.77 1311.19 328.98 0 274.77 -1311.19 385.93 0 68.94 -328.98 -385.93 0 -328.98 0zm1527.07 503.75c-4.06,36.38 3.33,65.24 20.83,87.39 17.9,22.15 37.83,38.35 59.64,49.43 22.29,10.67 37.39,17.79 46.31,20.56 2.99,0.79 4.49,1.18 4.49,1.18 57.33,17.01 112.48,38.75 164.98,65.64 52.97,26.49 98.67,59.31 137.7,97.67 38.92,38.74 66.89,84.62 84.17,138 16.88,53.38 18.28,114.67 3.7,184.26 -18.9,90.16 -58.76,172.8 -118.62,247.14 -59.96,74.73 -131.7,134.04 -215.8,178.73 -83.62,44.28 -170.88,66.43 -261.04,66.43l-1.19 0c-90.55,0 -168.16,-22.15 -233.62,-66.43 -64.96,-44.68 -112.25,-104 -140.86,-178.73 -28.71,-74.34 -33.54,-156.98 -14.64,-247.14l328.99 0c-8.91,46.27 -0.9,85.41 24.1,117.04 25,31.63 59.66,47.45 104.73,47.45l1.19 0c44.68,0 86.82,-16.22 126.04,-48.63 39.22,-32.43 63.55,-71.18 72.91,-115.86 6.29,-30.05 3.62,-56.94 -7.77,-79.88 -11.32,-23.33 -28.45,-43.49 -51.69,-60.89 -22.86,-17.4 -49.59,-33.22 -80.22,-47.45 -30.62,-14.23 -62.52,-28.07 -96.17,-41.12 -40.88,-16.22 -79.14,-33.61 -115.98,-52.19 -36.84,-18.58 -66.77,-39.94 -90.26,-63.67 -8,-7.11 -16.52,-17.39 -25.88,-31.23 -25.13,-34.8 -43.05,-71.97 -53.35,-111.51 -8.45,-33.22 -11.36,-68.41 -8.95,-106.36 1.86,-20.17 5.37,-40.73 9.68,-61.29 18.98,-90.56 58.35,-172.8 118.31,-247.53 59.86,-74.34 132.08,-134.04 215.7,-178.34 84.02,-44.28 170.9,-66.43 261.45,-66.43l1.19 0c90.16,0 168.15,22.15 233.21,66.43 65.44,44.29 112.25,104 140.97,178.34 28.61,74.73 33.93,156.97 14.95,247.53l-327.81 0c9.45,-45.08 1.27,-83.44 -24.04,-115.46 -25.31,-32.03 -60.76,-47.85 -106.22,-47.85l-1.19 0c-45.07,0 -86.74,15.82 -125.49,47.85 -38.73,32.02 -62.58,70.38 -72.03,115.46 -0.75,3.56 -1.57,7.51 -2.41,11.46zm-15522.69 451.96l-49.89 109.92c11.65,-30.84 34.07,-56.16 66.86,-75.92 32.79,-19.77 68.68,-31.23 107.98,-34l142.35 0 -33.52 -500.59 -233.78 500.59zm1588.98 -955.72c-38.9,2.77 -77.16,14.23 -114.3,34 -37.14,19.78 -61.93,45.08 -73.99,75.92l-173.33 873.46c-23.94,120.61 -16.1,230.53 23.45,330.17 39.54,99.64 103.31,178.73 190.8,238.04 87.55,58.91 191.99,88.57 313.37,88.57 120.21,0 236.03,-29.66 346.96,-88.57 111.02,-59.31 206.19,-138.4 285.28,-238.04 79.08,-99.64 130.95,-209.57 154.89,-330.17l195.14 -983.39 -160.93 0c-40.09,2.77 -78.73,14.23 -115.88,34 -37.14,19.78 -61.93,45.08 -73.98,75.92l-43.47 219.06 -8.24 41.52 -121.62 612.89c-11.94,60.11 -37.87,115.07 -77.41,164.9 -39.55,49.82 -87.41,89.75 -143.12,119.41 -55.7,29.66 -113.25,44.68 -172.57,44.68 -60.5,0 -112.48,-15.02 -156.41,-44.68 -43.94,-29.66 -75.55,-69.6 -95.72,-119.41 -19.76,-49.83 -23.49,-104.79 -11.55,-164.9l121.62 -612.89 8.24 -41.52 65.28 -328.98 -162.52 0zm2130.85 0l-220.25 0c-38.9,2.77 -77.16,14.23 -114.3,34 -37.14,19.78 -61.93,45.08 -73.99,75.92l-43.47 219.06 386.72 0 -260.21 1311.19 328.98 0 260.21 -1311.19 385.93 0 65.28 -328.98 -385.93 0 -328.98 0zm1953.3 0c-112.7,0 -223.22,20.95 -331.34,63.66 -108.05,42.31 -207.12,101.23 -296.76,176.36 -90.12,75.52 -165.98,162.91 -227.98,262.15 -62.4,99.25 -104.4,205.22 -126.75,317.92 -22.53,113.48 -22.67,219.85 0.34,319.1 22.61,99.24 63.87,186.24 124.09,261.37 59.91,74.73 135.68,133.25 226.85,175.96 91.25,42.3 193.37,63.66 306.07,63.66 113.47,0 224.09,-21.35 331.73,-63.66 107.73,-42.71 206.33,-101.23 296.28,-175.96 89.65,-75.13 165.43,-162.13 227.83,-261.37 62.01,-99.25 104.47,-205.62 126.99,-319.1 22.36,-112.69 22.03,-218.66 -0.58,-317.92 -23.01,-99.24 -64.18,-186.63 -123.94,-262.15 -60.22,-75.13 -135.52,-134.04 -226.37,-176.36 -90.77,-42.71 -192.99,-63.66 -306.46,-63.66zm-66.62 335.7c89.36,0 166.49,21.75 231.33,65.64 64.52,43.5 111.43,102.02 140.72,175.57 28.98,73.15 34.64,154.2 16.99,243.18 -17.74,89.36 -55.65,170.81 -113.74,244.36 -58.41,73.16 -128.55,131.68 -210.41,175.57 -82.18,43.5 -167.94,65.24 -257.31,65.24 -88.97,0 -165.72,-21.74 -231.03,-65.24 -65.23,-43.89 -112.14,-102.41 -141.12,-175.57 -29.3,-73.55 -34.88,-155 -17.14,-244.36 17.65,-88.97 55.48,-170.03 113.89,-243.18 58.09,-73.55 128.23,-132.07 210.8,-175.57 82.65,-43.89 168.04,-65.64 257.01,-65.64z"/>
   </g>
   <g>
    <path class="fil1" d="M8973.65 4700.43c-307.53,21.53 -590.46,110.72 -848.78,264.48 -258.32,153.76 -412.08,350.58 -458.21,590.44l0 4243.87 -3813.33 0c-298.31,30.75 -578.15,119.93 -836.47,270.63 -258.32,147.61 -412.09,347.5 -458.22,593.53l0 -864.16 0 -5098.79 -1263.93 0c-298.3,21.53 -578.15,110.72 -836.47,264.48 -258.32,153.76 -412.08,350.58 -458.22,590.44l0 4243.87 0 2558.63 0 5098.8 2558.63 0 0 -5098.8 5108.03 0 0 5098.8 2558.62 0 0 -5098.8 0 -2558.63 0 -5098.79 -1251.63 0zm7859.25 6137.3c-51.38,-10.44 -108.1,-64.56 -113.23,-118 -4.32,-86.21 84.61,-118.51 156.61,-115.8 71.67,4.54 188.11,45.3 251.49,79.57 47.66,25.77 52.68,84.97 4.45,113.38 -51.75,27.55 -241.04,51.38 -299.32,40.84zm-3979.86 1292.32c-314.26,0 -569.02,-254.76 -569.02,-569.02 0,-314.26 254.76,-569.02 569.02,-569.02 314.26,0 569.02,254.76 569.02,569.02 0,314.26 -254.76,569.02 -569.02,569.02zm4896.21 0c-314.26,0 -569.02,-254.76 -569.02,-569.02 0,-314.26 254.76,-569.02 569.02,-569.02 314.26,0 569.02,254.76 569.02,569.02 0,314.26 -254.76,569.02 -569.02,569.02zm-5269.15 -585.54l253.69 0 0 33.06 -253.69 0c3.83,87.76 38.24,170.72 97.54,235.49l179.39 -179.39 11.69 11.68 11.68 11.69 -179.39 179.39c64.77,59.3 147.74,93.72 235.49,97.54l0 -253.69 33.06 0 0 253.69c87.76,-3.82 170.73,-38.22 235.49,-97.54l-179.38 -179.39 11.67 -11.69 11.69 -11.68 179.39 179.39c59.3,-64.77 93.71,-147.74 97.54,-235.49l-253.69 0 0 -33.06 253.69 0c-3.82,-87.75 -38.22,-170.73 -97.54,-235.49l-179.39 179.39 -11.69 -11.68 -11.67 -11.69 179.38 -179.39c-64.77,-59.3 -147.74,-93.71 -235.49,-97.54l0 253.69 -33.06 0 0 -253.69c-87.75,3.82 -170.73,38.22 -235.49,97.54l179.39 179.39 -11.68 11.69 -11.69 11.68 -179.39 -179.39c-59.3,64.77 -93.71,147.74 -97.54,235.49zm390.84 83.32c11.77,-3.15 24.01,3.92 27.16,15.69 3.15,11.77 -3.9,24 -15.68,27.16 -11.77,3.15 -24,-3.91 -27.15,-15.68 -3.17,-11.77 3.89,-24.01 15.67,-27.17zm-35.81 0c11.77,3.16 18.84,15.4 15.68,27.17 -3.16,11.76 -15.39,18.83 -27.16,15.68 -11.76,-3.16 -18.83,-15.39 -15.67,-27.16 3.15,-11.76 15.39,-18.84 27.15,-15.69zm-46.02 -40.38c4.65,11.26 -0.75,24.28 -12.02,28.95 -11.27,4.65 -24.3,-0.74 -28.97,-12.02 -4.65,-11.25 0.76,-24.31 12.03,-28.97 11.26,-4.65 24.3,0.77 28.96,12.04zm81.82 -93.19c-11.77,-3.16 -18.84,-15.4 -15.67,-27.17 3.15,-11.77 15.38,-18.83 27.15,-15.68 11.77,3.16 18.83,15.39 15.68,27.16 -3.15,11.76 -15.39,18.84 -27.16,15.69zm46.02 40.38c-4.65,-11.26 0.76,-24.28 12.03,-28.95 11.26,-4.65 24.3,0.74 28.96,12.02 4.66,11.26 -0.75,24.31 -12.02,28.97 -11.26,4.65 -24.31,-0.77 -28.97,-12.04zm-81.82 -40.38c-11.76,3.15 -24,-3.92 -27.15,-15.69 -3.16,-11.77 3.9,-24 15.67,-27.16 11.77,-3.15 24,3.9 27.16,15.68 3.16,11.77 -3.9,24.01 -15.68,27.17zm-46.02 40.38c-4.65,11.26 -17.69,16.69 -28.96,12.04 -11.26,-4.65 -16.68,-17.7 -12.03,-28.97 4.66,-11.27 17.69,-16.67 28.97,-12.02 11.26,4.66 16.67,17.68 12.02,28.95zm63.92 59.56c-18.3,0 -33.15,-14.84 -33.15,-33.15 0,-18.3 14.84,-33.15 33.15,-33.15 18.3,0 33.15,14.84 33.15,33.15 0,18.3 -14.84,33.15 -33.15,33.15zm63.92 -6.74c4.65,-11.26 17.7,-16.69 28.97,-12.04 11.26,4.65 16.68,17.71 12.02,28.97 -4.65,11.27 -17.69,16.67 -28.96,12.02 -11.26,-4.66 -16.68,-17.68 -12.03,-28.95zm4459.36 -42.94l253.69 0 0 33.06 -253.69 0c3.83,87.76 38.23,170.72 97.54,235.49l179.39 -179.39 11.69 11.68 11.67 11.69 -179.38 179.39c64.77,59.3 147.74,93.72 235.49,97.54l0 -253.69 33.06 0 0 253.69c87.75,-3.82 170.73,-38.22 235.49,-97.54l-179.39 -179.39 11.68 -11.69 11.69 -11.68 179.39 179.39c59.3,-64.77 93.71,-147.74 97.54,-235.49l-253.69 0 0 -33.06 253.69 0c-3.82,-87.75 -38.22,-170.73 -97.54,-235.49l-179.39 179.39 -11.69 -11.68 -11.68 -11.69 179.39 -179.39c-64.77,-59.3 -147.74,-93.71 -235.49,-97.54l0 253.69 -33.06 0 0 -253.69c-87.75,3.82 -170.73,38.22 -235.49,97.54l179.38 179.39 -11.67 11.69 -11.69 11.68 -179.39 -179.39c-59.3,64.77 -93.71,147.74 -97.54,235.49zm390.84 83.32c11.77,-3.15 24,3.92 27.15,15.69 3.16,11.77 -3.9,24 -15.67,27.16 -11.77,3.15 -24,-3.91 -27.16,-15.68 -3.16,-11.77 3.9,-24.01 15.68,-27.17zm-35.81 0c11.77,3.16 18.84,15.4 15.68,27.17 -3.16,11.76 -15.39,18.83 -27.16,15.68 -11.77,-3.16 -18.83,-15.39 -15.68,-27.16 3.16,-11.76 15.39,-18.84 27.16,-15.69zm-46.02 -40.38c4.65,11.26 -0.76,24.28 -12.03,28.95 -11.26,4.65 -24.29,-0.74 -28.96,-12.02 -4.65,-11.26 0.75,-24.31 12.03,-28.97 11.26,-4.65 24.3,0.77 28.96,12.04zm81.82 -93.19c-11.77,-3.16 -18.84,-15.4 -15.68,-27.17 3.16,-11.76 15.39,-18.83 27.16,-15.68 11.76,3.16 18.83,15.39 15.67,27.16 -3.15,11.76 -15.38,18.84 -27.15,15.69zm46.02 40.38c-4.65,-11.26 0.75,-24.28 12.02,-28.95 11.27,-4.65 24.3,0.74 28.97,12.02 4.65,11.25 -0.76,24.31 -12.03,28.97 -11.26,4.65 -24.3,-0.77 -28.96,-12.04zm-81.82 -40.38c-11.77,3.15 -24,-3.92 -27.16,-15.69 -3.15,-11.77 3.9,-24 15.68,-27.16 11.77,-3.15 24,3.9 27.16,15.68 3.16,11.77 -3.9,24.01 -15.68,27.17zm-46.02 40.38c-4.65,11.26 -17.69,16.69 -28.96,12.04 -11.27,-4.65 -16.68,-17.7 -12.03,-28.97 4.66,-11.27 17.69,-16.67 28.96,-12.02 11.26,4.66 16.68,17.68 12.03,28.95zm63.92 59.56c-18.3,0 -33.15,-14.84 -33.15,-33.15 0,-18.3 14.84,-33.15 33.15,-33.15 18.3,0 33.15,14.84 33.15,33.15 0,18.3 -14.84,33.15 -33.15,33.15zm63.92 -6.74c4.65,-11.26 17.69,-16.69 28.96,-12.04 11.26,4.65 16.68,17.7 12.03,28.97 -4.66,11.27 -17.69,16.67 -28.97,12.02 -11.26,-4.66 -16.67,-17.68 -12.02,-28.95zm-6353.03 -171.59l744.24 0 -0.83 3.69c-12.17,53.93 -18.23,109.07 -18.23,164.34 0,98.28 19.1,195.53 57.17,286.17l1.8 4.26 -45.25 -0.59 -526.94 -196.07 -211.94 -261.81zm7017.12 261.58l929.51 0c35.57,-27.15 71.14,-54.29 106.71,-81.44 22.02,-1.84 14.38,36.32 -0.88,46.35 -261.07,171.66 -808.85,237.45 -1109.75,234.47 32.15,-57.47 57.77,-128.03 74.41,-199.38zm-4142.14 -820.91l49.23 124.14 2578.42 207.53 -2627.64 -331.67zm-490.15 884.75l74.87 -136.71 3066.28 162.75 -3141.15 -26.04zm993.09 -186.4l-259.53 -113.93c-20.14,-8.84 -34.98,-22.02 -46.15,-40.97l-320.69 -544.36c-7.88,-13.41 -9.78,-27.84 -5.6,-42.83 4.18,-14.98 13.21,-26.47 26.97,-33.74l191.55 -101.25c2.21,-1.16 3.18,-3.73 2.36,-6.08 -0.82,-2.35 -3.2,-3.77 -5.63,-3.28l-354.88 72.99c-25.33,5.21 -45.22,20.29 -55.54,44.01 -10.32,23.72 -8.29,48.87 5.69,70.65l362.37 564.36c22.16,34.49 54.02,55.24 94.06,64.07l362.01 79.85c2.5,0.54 4.96,-0.95 5.75,-3.39 0.78,-2.44 -0.43,-5.08 -2.73,-6.1zm-1357.35 -681.71l365.9 508.63c35.32,49.09 38.35,110.45 8.48,163.04l-141.03 248.25c-1.27,2.26 -4.07,3.14 -6.44,2.06 -2.37,-1.08 -3.54,-3.8 -2.63,-6.25l100.01 -267.4c12.94,-34.58 9.45,-69.84 -9.47,-101.53l-323.23 -541.32c-1.36,-2.31 -0.64,-5.32 1.61,-6.76 2.26,-1.44 5.23,-0.87 6.78,1.28zm5486.99 471.2c30.11,3.19 232.69,21.74 243.6,3.14 6.43,-10.94 -45.64,-50.19 -53.93,-57.2 -67.92,-57.53 -136.25,-103.04 -213.34,-147.25 -142.55,-78.53 -314.7,-143.22 -476.19,-165.93 -50.56,-7.1 -25.54,5.41 -0.17,25.63 124.64,99.36 234.51,196.86 370.72,282.73 34.6,21.46 88.65,53.29 129.31,58.88zm-4620.95 -844.62l231.99 -253.37 268.64 -18.31 122.1 387.68 -622.73 -116zm604.42 -268.63l125.16 401.42 1322.17 226.59c37.65,6.45 70.22,9.23 108.42,9.23l349.56 0 19.25 40.42 204.01 -36.57 82.75 -69.28 205.94 -71.21c-498.55,-197.97 -1043.09,-363.57 -1585.54,-492 -70.22,-16.62 -131.95,-23.19 -204.09,-21.68l-627.63 13.09zm-3399.13 350.34l93.46 178.72c19.54,37.36 55.68,59.25 97.85,59.25l222.42 0c16.87,0 26.66,-13.14 34.4,-28.13 44.14,-85.48 -227.01,-246.4 -440.18,-224.61 -3.45,0.35 -6.24,2.23 -7.88,5.28 -1.64,3.05 -1.66,6.43 -0.06,9.5zm1050.42 -5881.02c-298.3,21.53 -578.15,110.72 -836.47,264.48 -258.32,153.76 -412.08,350.58 -458.22,590.44l0 6685.64 0 5215.66 2558.63 0 0 -5108.18 1682.18 0 3029.14 5108.18 2955.34 0 -3072.2 -5280.24c587.38,-119.93 1113.25,-353.65 1571.47,-701.16 458.21,-350.58 824.17,-784.2 1094.8,-1306.99 270.62,-522.8 405.94,-1091.73 405.94,-1703.7 0,-688.86 -172.22,-1322.37 -510.49,-1891.28 -338.29,-572.01 -793.43,-1027.15 -1365.42,-1365.42 -568.93,-338.28 -1199.35,-507.42 -1891.29,-507.42l-3899.45 0 -1263.93 0zm1263.93 2558.62l3899.45 0c332.13,0 615.05,116.86 851.85,353.66 236.8,236.79 356.73,522.79 356.73,851.85 0,335.2 -119.93,624.28 -356.73,861.08 -236.8,236.79 -519.72,356.73 -851.85,356.73l-2604.75 0c-298.31,21.52 -578.15,110.71 -836.47,264.47 -109.07,64.92 -199.51,137.52 -271.06,217.79l398.45 -50.38c705.28,-97.36 1757.12,-47.08 3172,594.77 1097.33,61.71 1868.14,731.92 1868.14,731.92l-151.8 170.29 -900.71 0 -11.92 2.47c1.34,-17.56 2.03,-35.32 2.03,-53.23 0,-380.76 -308.67,-689.43 -689.42,-689.43 -380.76,0 -689.43,308.67 -689.43,689.43 0,116.04 28.7,225.35 79.35,321.31l-3665.03 5.3 -7.77 -0.1c41.18,-91.89 64.24,-194.63 64.24,-303.08 0,-391.27 -299.84,-708.48 -669.71,-708.48 -265.36,0 -494.66,163.29 -603.06,400.07l-710.62 0 -33.42 0c-64.18,0 -116.69,-52.5 -116.69,-116.68l0 -0.01c0,-64.18 52.51,-116.68 116.69,-116.68l79.67 0 2.18 -197.06 -146.91 -336.83 1581.7 -213.09 844.87 -106.82 0 -505.93 0 -2423.32zm10043.83 -2558.62c-298.29,21.53 -578.14,110.72 -836.46,264.48 -258.32,153.76 -412.09,350.58 -458.22,590.44l0 4286.93 0 2558.63 0 5055.74 6421.16 0c698.09,0 1334.67,-172.22 1909.75,-513.57 578.15,-341.36 1036.36,-802.64 1380.8,-1377.72 341.36,-578.15 513.57,-1214.73 513.57,-1909.75 0,-685.78 -169.14,-1313.14 -501.28,-1885.14 -332.13,-568.92 -774.96,-1027.14 -1328.51,-1368.49 319.83,-565.85 476.66,-1180.91 476.66,-1848.23 0,-707.31 -172.21,-1353.13 -522.79,-1934.34 -347.5,-584.3 -811.87,-1048.68 -1396.17,-1399.25 -581.23,-347.5 -1227.03,-519.72 -1937.43,-519.72l-3721.07 0zm3721.07 7700.47l1405.4 0c338.29,0 627.36,123.01 876.45,372.11 246.02,246.02 369.04,538.18 369.04,882.6 0,341.36 -123.01,636.59 -369.04,882.61 -249.09,246.01 -538.17,369.03 -876.45,369.03l-2567.84 0c-298.31,24.6 -578.15,110.71 -836.47,261.4 -258.32,150.68 -412.09,347.5 -458.22,593.53l0 -854.93 0 -2506.34 2457.14 0zm-2457.14 -5141.86l2457.14 0c356.74,0 661.19,126.09 916.44,381.33 255.24,255.25 381.33,559.7 381.33,913.36 0,350.58 -126.09,651.95 -381.33,907.2 -255.25,255.25 -559.7,381.33 -916.44,381.33l-1162.44 0c-298.31,24.6 -578.15,113.79 -836.47,267.55 -258.32,153.76 -412.09,350.58 -458.22,590.45l0 -858 0 -2583.23z"/>
   </g>
   <path class="fil2" d="M1293.55 18298.91c-98.19,6.98 -195.03,35.9 -289.32,85.74 -94.28,49.86 -157.61,113.66 -189,191.43l-815.23 3858.51 829.53 0 873.79 -4135.68 -409.78 0zm2365.91 0c-98.19,6.98 -195.03,35.9 -289.32,85.74 -94.28,49.86 -157.61,113.66 -189,191.43l-815.23 3858.51 829.53 0 522.21 -2471.64 785.9 2471.64 344.97 0 343.98 0 1841.33 -2476.63 -523.26 2476.63 829.52 0 873.79 -4135.68 -829.52 0 -2325.57 3154.6 -989.56 -3154.6 -409.78 0zm6510.56 0c-98.19,6.98 -195.03,35.9 -289.32,85.74 -94.28,49.86 -157.61,113.66 -189,191.43l-457.96 2167.55 -357.27 1690.96 829.53 0 357.27 -1690.96 1264.23 0c224.33,0 440.31,-54.84 648.14,-165.51 208.61,-109.67 387.35,-257.24 536.21,-442.68 148.64,-184.45 247.87,-389.84 295.69,-616.17 47.18,-223.34 34.74,-428.72 -35.96,-613.18 -70.5,-185.45 -186.87,-333 -349.15,-442.67 -161.29,-109.67 -354.08,-164.51 -578.41,-164.51l-1264.23 0 -409.78 0zm234.51 829.53l1264.23 0c107.68,0 191.4,37.88 251.94,114.66 60.56,76.77 79.86,169.49 57.32,276.17 -22.97,108.68 -81.65,202.4 -174.64,279.17 -92.98,76.77 -192.94,115.65 -300.62,115.65l-844.49 0c-98.19,6.98 -195.02,35.9 -289.3,85.74 -94.29,49.86 -157.61,113.66 -189.01,191.43l58.56 -277.18 166 -785.65zm6265.08 -829.53c-284.16,0 -563.53,52.85 -837.53,160.52 -273.79,106.68 -525.52,255.24 -753.98,444.68 -229.68,190.43 -423.79,410.77 -583.35,661.03 -160.54,250.26 -269.84,517.45 -329.88,801.61 -60.46,286.15 -64.28,554.35 -9.48,804.6 53.81,250.26 155.03,469.6 304.44,659.04 148.64,188.44 337.8,336 566.3,443.68 228.7,106.68 485.53,160.52 769.69,160.52 286.15,0 565.73,-53.84 838.52,-160.52 273,-107.68 523.53,-255.24 752.78,-443.68 228.46,-189.44 422.36,-408.78 582.92,-659.04 159.56,-250.25 270.07,-518.45 330.52,-804.6 60.04,-284.16 62.65,-551.35 8.84,-801.61 -54.8,-250.26 -155.81,-470.6 -304.01,-661.03 -149.42,-189.44 -337.37,-338 -565.09,-444.68 -227.5,-107.68 -484.53,-160.52 -770.68,-160.52zm-178.85 846.48c225.33,0 419.13,54.83 581.19,165.51 161.29,109.67 277.66,257.23 349.16,442.67 70.7,184.45 82.35,388.85 34.95,613.18 -47.61,225.33 -145.84,430.72 -294.69,616.17 -149.65,184.45 -328.38,332.01 -536.22,442.68 -208.61,109.67 -425.58,164.5 -650.92,164.5 -224.33,0 -417.14,-54.83 -580.41,-164.5 -163.06,-110.68 -279.45,-258.23 -350.15,-442.68 -71.49,-185.45 -82.93,-390.83 -35.32,-616.17 47.4,-224.33 145.42,-428.72 295.06,-613.18 148.85,-185.45 327.6,-333 537.21,-442.67 209.83,-110.68 425.8,-165.51 650.14,-165.51zm4202.82 -846.48c-98.19,6.98 -195.03,35.9 -289.32,85.74 -94.28,49.86 -157.61,113.66 -189,191.43l-457.96 2167.55 -357.27 1690.96 829.53 0 357.27 -1690.96 545.38 0 624.8 1690.96 958.14 0 -634.34 -1711.9c198.65,-38.88 385.14,-114.66 557.5,-227.32 172.58,-113.66 320.93,-254.25 444.48,-423.74 123.54,-169.5 206.39,-353.94 248.31,-552.36 47.18,-223.34 34.74,-428.72 -35.96,-613.18 -70.5,-185.45 -186.87,-333 -349.15,-442.67 -161.29,-109.67 -354.08,-164.51 -578.41,-164.51l-1264.23 0 -409.78 0zm234.51 829.53l1264.23 0c107.68,0 191.4,37.88 251.94,114.66 60.56,76.77 79.86,169.49 57.32,276.17 -22.97,108.68 -81.65,202.4 -174.64,279.17 -92.98,76.77 -192.94,115.65 -300.62,115.65l-844.49 0c-98.19,6.98 -195.02,35.9 -289.3,85.74 -94.29,49.86 -157.61,113.66 -189.01,191.43l58.56 -277.18 166 -785.65zm5172.34 -829.53l-555.35 0c-98.19,6.98 -195.03,35.9 -289.32,85.74 -94.28,49.86 -157.61,113.66 -189,191.43l-116.7 552.36 975.1 0 -698.53 3306.15 829.52 0 698.53 -3306.15 973.11 0 175.27 -829.53 -973.11 0 -829.52 0zm3900.16 1270.22c-10.41,91.72 8.11,164.5 52.15,220.34 45.04,55.83 95.22,96.71 150.14,124.63 56.13,26.92 94.21,44.87 116.66,51.84 7.55,2 11.33,3 11.33,3 144.49,42.87 283.46,97.71 415.69,165.51 133.44,66.8 248.56,149.55 346.78,246.27 97.99,97.71 168.28,213.36 211.63,347.97 42.34,134.6 45.59,289.13 8.52,464.61 -48.03,227.33 -148.89,435.7 -300.16,623.15 -151.48,188.45 -332.63,338 -544.87,450.66 -211.04,111.67 -431.22,167.5 -658.54,167.5l-2.99 0c-228.32,0 -423.91,-55.83 -588.74,-167.5 -163.64,-112.66 -282.6,-262.21 -354.45,-450.66 -72.06,-187.44 -83.88,-395.82 -35.85,-623.15l829.53 0c-22.65,116.65 -2.64,215.36 60.28,295.13 62.92,79.75 150.2,119.64 263.87,119.64l2.99 0c112.66,0 219.01,-40.88 318.04,-122.64 99.03,-81.75 160.55,-179.46 184.35,-292.13 16.01,-75.77 9.41,-143.57 -19.26,-201.39 -28.45,-58.82 -71.55,-109.67 -130.08,-153.54 -57.53,-43.87 -124.87,-83.76 -202.04,-119.64 -77.17,-35.9 -157.53,-70.8 -242.31,-103.7 -103.02,-40.88 -199.45,-84.75 -292.24,-131.61 -92.78,-46.86 -168.16,-100.7 -227.3,-160.52 -20.14,-17.94 -41.58,-43.87 -65.12,-78.76 -63.22,-87.74 -108.22,-181.46 -134.01,-281.17 -21.19,-83.75 -28.36,-172.49 -22.11,-268.2 4.76,-50.85 13.72,-102.69 24.67,-154.54 48.24,-228.32 147.9,-435.7 299.38,-624.15 151.27,-187.44 333.63,-337.99 544.66,-449.65 212.02,-111.67 431.21,-167.5 659.53,-167.5l2.99 0c227.32,0 423.9,55.83 587.75,167.5 164.85,111.67 282.59,262.21 354.65,449.65 71.85,188.45 84.87,395.83 36.63,624.15l-826.54 0c24.02,-113.66 3.58,-210.38 -60.12,-291.14 -63.7,-80.76 -152.98,-120.64 -267.64,-120.64l-2.99 0c-113.66,0 -218.8,39.88 -316.62,120.64 -97.83,80.76 -158.14,177.47 -182.16,291.14 -1.89,8.97 -3.99,18.94 -6.11,28.92z"/>
   <path class="fil3" d="M16357.84 3452.42l-2227.49 0 -1315.38 -2467.06 1555.28 462.58 5.04 3.52c-36.82,91.66 -57.14,191.73 -57.14,296.55 0,439.59 356.36,795.95 795.93,795.95 439.59,0 795.95,-356.36 795.95,-795.95 0,-347.21 -222.36,-642.44 -532.44,-751.21l980.24 -996.81 980.24 996.81c-310.08,108.77 -532.44,404 -532.44,751.21 0,439.59 356.36,795.95 795.95,795.95 439.57,0 795.93,-356.36 795.93,-795.95 0,-104.82 -20.32,-204.89 -57.14,-296.55l5.04 -3.52 1555.28 -462.58 -1315.38 2467.06 -2227.49 0zm-2170.46 323.35l4348.49 0 0 563.05 -4348.49 0 0 -563.05zm6681.36 -1806.02l-268.4 731.74 -763.91 34.75 598.03 486.97 -203.72 753.21 638 -430.76 637.99 430.76 -203.72 -753.21 598.03 -486.97 -763.91 -34.75 -268.39 -731.74zm3164.41 357.5l-271.63 732.24 -773.12 34.77 605.24 487.32 -206.19 753.73 645.69 -431.06 645.69 431.06 -206.19 -753.73 605.24 -487.32 -773.11 -34.77 -271.64 -732.24zm-12171.39 -357.5l268.4 731.74 763.91 34.75 -598.03 486.97 203.72 753.21 -638 -430.76 -637.99 430.76 203.72 -753.21 -598.03 -486.97 763.91 -34.75 268.39 -731.74zm-3164.41 357.5l271.63 732.24 773.12 34.77 -605.24 487.32 206.19 753.73 -645.69 -431.06 -645.69 431.06 206.19 -753.73 -605.24 -487.32 773.11 -34.77 271.64 -732.24z"/>
   <path class="fil4" d="M17114.32 19248.73c-186.19,-126.87 -399.82,-178.57 -623.56,-178.57 -242.41,0 -470.63,61.46 -685.12,174.13 -218.77,114.94 -405.59,269.73 -560.77,462.03 -153.74,190.53 -259.49,405.3 -310.11,644.87 -46.85,221.73 -43.23,445.56 38.7,658.7 76.26,198.39 201.95,358.99 378.27,478.04 186.4,125.85 399.01,177.38 622.5,177.38 242.32,0 471.84,-59.88 686.1,-173.24 217.74,-115.21 404.84,-270.19 559.58,-461.93 154.25,-191.16 258.99,-407.66 309.74,-647.86 46.61,-220.6 43.2,-443.62 -38.33,-655.71 -76.12,-198.01 -201.75,-358.41 -377.01,-477.85zm-15410.99 -949.83l-409.78 0c-98.19,6.98 -195.03,35.9 -289.32,85.74 -94.28,49.86 -157.61,113.66 -189,191.43l-815.23 3858.51 829.53 0 873.79 -4135.68zm-407.03 75.22l314.26 0 -842.01 3985.24 -675.77 0 794.59 -3760.8c29.25,-67.13 88.57,-113.87 152.03,-147.42 80.17,-42.38 166.28,-70.17 256.91,-77.02zm1884.84 201.95l-815.23 3858.51 829.53 0 522.21 -2471.64 785.9 2471.64 344.97 0 343.98 0 1841.33 -2476.63 -523.26 2476.63 829.52 0 873.79 -4135.68 -829.52 0 -2325.57 3154.6 -989.56 -3154.6 -409.78 0c-98.19,6.98 -195.03,35.9 -289.32,85.74 -94.28,49.86 -157.61,113.66 -189,191.43zm-722.46 3783.29l794.59 -3760.8c29.25,-67.13 88.57,-113.87 152.03,-147.42 80.17,-42.38 166.28,-70.17 256.91,-77.02l351.79 0 973.03 3101.9c8.7,27.71 30.72,46.89 59.36,51.67 28.65,4.79 55.72,-6.18 72.95,-29.56l2303.02 -3124.01 698.75 0 -842.01 3985.24 -675.76 0 504.08 -2385.86c7.39,-34.97 -10.08,-69.41 -42.67,-84.12 -32.59,-14.69 -69.97,-4.99 -91.3,23.69l-1818.78 2446.29 -596.13 0 -769.23 -2419.22c-10.49,-33 -40.85,-54.06 -75.42,-52.33 -34.58,1.73 -62.69,25.71 -69.86,59.59l-509.6 2411.97 -675.77 0zm9462.02 -3116.27c60.56,76.77 79.86,169.49 57.32,276.17 -22.97,108.68 -81.65,202.4 -174.64,279.17 -92.98,76.77 -192.94,115.65 -300.62,115.65l-844.49 0c-98.19,6.98 -195.02,35.9 -289.3,85.74 -94.29,49.86 -157.61,113.66 -189.01,191.43l58.56 -277.18 166 -785.65 1264.23 0c107.68,0 191.4,37.88 251.94,114.66zm-1589.77 -130.2l-224.56 1062.83c-8.08,38.27 14.24,76.09 51.66,87.5 37.41,11.4 77.05,-7.52 91.69,-43.8 28.33,-70.19 89.17,-118.59 154.41,-153.09 80.16,-42.38 166.27,-70.17 256.89,-77.02l841.74 0c131.53,0 247.67,-49.62 348.51,-132.86 102.1,-84.3 172.9,-191.7 200.35,-321.64 25.8,-122.1 6.07,-239.51 -71.85,-338.3 -78.05,-98.97 -186.01,-143.3 -311.01,-143.3l-1264.23 0c-35.94,0 -66.16,24.51 -73.6,59.68zm4163.82 452.24c-160.54,250.26 -269.84,517.45 -329.88,801.61 -60.46,286.15 -64.28,554.35 -9.48,804.6 53.81,250.26 155.03,469.6 304.44,659.04 148.64,188.44 337.8,336 566.3,443.68 228.7,106.68 485.53,160.52 769.69,160.52 286.15,0 565.73,-53.84 838.52,-160.52 273,-107.68 523.53,-255.24 752.78,-443.68 228.46,-189.44 422.36,-408.78 582.92,-659.04 159.56,-250.25 270.07,-518.45 330.52,-804.6 60.04,-284.16 62.65,-551.35 8.84,-801.61 -54.8,-250.26 -155.81,-470.6 -304.01,-661.03 -149.42,-189.44 -337.37,-338 -565.09,-444.68 -227.5,-107.68 -484.53,-160.52 -770.68,-160.52 -284.16,0 -563.53,52.85 -837.53,160.52 -273.79,106.68 -525.52,255.24 -753.98,444.68 -229.68,190.43 -423.79,410.77 -583.35,661.03zm-256.28 817.16c58.72,-277.92 166.55,-537.23 319.65,-776.63 155.8,-243.6 345.33,-459.02 567.99,-643.65 220.78,-183.06 466.39,-328.07 733.38,-432.54 259.93,-101.71 531.03,-155.35 810.12,-155.35 255.38,0 506.55,44.07 738.64,153.35 211.69,99.69 393.53,238.71 537.92,423.02 146.13,186.52 239.59,399.64 289.71,630.6 55.39,255.25 44.85,515.57 -8.93,770.11 -58.9,278.81 -166.7,539.47 -320.29,779.62 -155.52,243.15 -344.86,457.8 -567.44,641.56 -220.85,182.34 -465.79,326.97 -732.39,431.67 -260.2,102.19 -531.56,155.32 -811.02,155.32 -255.04,0 -505.88,-44.69 -737.75,-153.41 -211.78,-99.29 -394.25,-238.41 -539.17,-422.15 -146.44,-185.66 -239.9,-397.58 -289.99,-628.4 -55.57,-256.14 -44.38,-517.75 9.57,-773.11zm-1466.87 -1476.2c-70.5,-185.45 -186.87,-333 -349.15,-442.67 -161.29,-109.67 -354.08,-164.51 -578.41,-164.51l-1264.23 0 -409.78 0c-98.19,6.98 -195.03,35.9 -289.32,85.74 -94.28,49.86 -157.61,113.66 -189,191.43l-457.96 2167.55 -357.27 1690.96 829.53 0 357.27 -1690.96 1264.23 0c224.33,0 440.31,-54.84 648.14,-165.51 208.61,-109.67 387.35,-257.24 536.21,-442.68 148.64,-184.45 247.87,-389.84 295.69,-616.17 47.18,-223.34 34.74,-428.72 -35.96,-613.18zm-391.35 -380.41c150.33,101.92 256.32,237.57 321.08,407.24 70.47,184.58 73.16,378.99 32.64,570.8 -45.89,217.19 -141.64,411.65 -280.71,584.57 -141.79,176.28 -312.89,317.58 -512.78,423.34 -191.65,101.41 -395.62,156.77 -612.96,156.77l-1264.23 0c-35.94,0 -66.16,24.51 -73.6,59.68l-344.67 1631.29 -675.77 0 794.59 -3760.8c29.25,-67.13 88.57,-113.87 152.03,-147.42 80.17,-42.38 166.28,-70.17 256.91,-77.02l1671.26 0c192.24,0 375.85,42.85 536.21,151.56zm7835.02 50.4l-457.96 2167.55 -357.27 1690.96 829.53 0 357.27 -1690.96 545.38 0 624.8 1690.96 958.14 0 -634.34 -1711.9c198.65,-38.88 385.14,-114.66 557.5,-227.32 172.58,-113.66 320.93,-254.25 444.48,-423.74 123.54,-169.5 206.39,-353.94 248.31,-552.36 47.18,-223.34 34.74,-428.72 -35.96,-613.18 -70.5,-185.45 -186.87,-333 -349.15,-442.67 -161.29,-109.67 -354.08,-164.51 -578.41,-164.51l-1264.23 0 -409.78 0c-98.19,6.98 -195.03,35.9 -289.32,85.74 -94.28,49.86 -157.61,113.66 -189,191.43zm-722.46 3783.29l794.59 -3760.8c29.25,-67.13 88.57,-113.87 152.03,-147.42 80.17,-42.38 166.28,-70.17 256.91,-77.02l1671.26 0c192.24,0 375.85,42.85 536.21,151.56 150.33,101.92 256.32,237.57 321.08,407.24 70.47,184.58 73.16,378.99 32.64,570.8 -40.38,191.1 -120.57,365.91 -235.5,523.59 -117.08,160.63 -258.83,296.16 -424.95,405.15 -162.36,106.53 -340.26,179.12 -530.69,216.4 -22.42,4.38 -39.97,17.09 -51.15,37.01 -11.17,19.93 -12.87,41.52 -4.93,62.95l596.79 1610.54 -797.66 0 -606.64 -1641.81c-11.12,-30.11 -38.46,-49.15 -70.56,-49.15l-545.38 0c-35.94,0 -66.16,24.51 -73.6,59.68l-344.67 1631.29 -675.77 0zm1361.69 -3246.47l-224.56 1062.83c-8.08,38.27 14.24,76.09 51.66,87.5 37.41,11.4 77.05,-7.52 91.69,-43.8 28.33,-70.19 89.17,-118.59 154.41,-153.09 80.16,-42.38 166.27,-70.17 256.89,-77.02l841.74 0c131.53,0 247.67,-49.62 348.51,-132.86 102.1,-84.3 172.9,-191.7 200.35,-321.64 25.8,-122.1 6.07,-239.51 -71.85,-338.3 -78.05,-98.97 -186.01,-143.3 -311.01,-143.3l-1264.23 0c-35.94,0 -66.16,24.51 -73.6,59.68zm-92.4 801.2l166 -785.65 1264.23 0c107.68,0 191.4,37.88 251.94,114.66 60.56,76.77 79.86,169.49 57.32,276.17 -22.97,108.68 -81.65,202.4 -174.64,279.17 -92.98,76.77 -192.94,115.65 -300.62,115.65l-844.49 0c-98.19,6.98 -195.02,35.9 -289.3,85.74 -94.29,49.86 -157.61,113.66 -189.01,191.43l58.56 -277.18zm4785.74 -1539.97l2262.45 0 -143.48 679.09 -912.12 0c-35.94,0 -66.16,24.51 -73.6,59.68l-685.92 3246.47 -675.76 0 679.35 -3215.38c4.85,-22.95 -0.39,-44.69 -15.16,-62.92 -14.78,-18.22 -34.97,-27.85 -58.43,-27.85l-882.33 0 96.06 -454.65c29.25,-67.13 88.57,-113.87 152.03,-147.42 80.17,-42.38 166.28,-70.17 256.91,-77.02zm-481.07 201.95l-116.7 552.36 975.1 0 -698.53 3306.15 829.52 0 698.53 -3306.15 973.11 0 175.27 -829.53 -973.11 0 -829.52 0 -555.35 0c-98.19,6.98 -195.03,35.9 -289.32,85.74 -94.28,49.86 -157.61,113.66 -189,191.43zm4954.45 -109.67c-211.03,111.67 -393.4,262.21 -544.66,449.65 -151.49,188.45 -251.14,395.83 -299.38,624.15 -10.95,51.84 -19.91,103.69 -24.67,154.54 -6.26,95.71 0.91,184.45 22.11,268.2 25.8,99.7 70.8,193.43 134.01,281.17 23.54,34.89 44.98,60.82 65.12,78.76 59.14,59.83 134.52,113.66 227.3,160.52 92.79,46.86 189.22,90.73 292.24,131.61 84.78,32.9 165.15,67.8 242.31,103.7 77.17,35.89 144.51,75.77 202.04,119.64 58.53,43.87 101.63,94.72 130.08,153.54 28.66,57.82 35.26,125.62 19.26,201.39 -23.8,112.67 -85.32,210.38 -184.35,292.13 -99.03,81.76 -205.38,122.64 -318.04,122.64l-2.99 0c-113.66,0 -200.95,-39.89 -263.87,-119.64 -62.92,-79.76 -82.92,-178.48 -60.28,-295.13l-829.53 0c-48.03,227.33 -36.22,435.7 35.85,623.15 71.85,188.45 190.81,338 354.45,450.66 164.84,111.67 360.42,167.5 588.74,167.5l2.99 0c227.32,0 447.5,-55.83 658.54,-167.5 212.24,-112.66 393.39,-262.21 544.87,-450.66 151.28,-187.44 252.13,-395.82 300.16,-623.15 37.08,-175.48 33.83,-330.01 -8.52,-464.61 -43.36,-134.61 -113.64,-250.26 -211.63,-347.97 -98.22,-96.71 -213.34,-179.47 -346.78,-246.27 -132.24,-67.8 -271.21,-122.64 -415.69,-165.51 0,0 -3.78,-1 -11.33,-3 -22.46,-6.97 -60.54,-24.92 -116.66,-51.84 -54.92,-27.91 -105.1,-68.79 -150.14,-124.63 -44.04,-55.83 -62.56,-128.62 -52.15,-220.34 2.12,-9.98 4.22,-19.95 6.11,-28.92 24.02,-113.66 84.33,-210.38 182.16,-291.14 97.82,-80.76 202.96,-120.64 316.62,-120.64l2.99 0c114.66,0 203.94,39.88 267.64,120.64 63.7,80.76 84.14,177.47 60.12,291.14l826.54 0c48.24,-228.32 35.22,-435.7 -36.63,-624.15 -72.06,-187.44 -189.81,-337.99 -354.65,-449.65 -163.85,-111.67 -360.43,-167.5 -587.75,-167.5l-2.99 0c-228.32,0 -447.51,55.83 -659.53,167.5zm-486.08 496.84c143.84,-178.6 318.45,-323.28 521.2,-430.32 195.62,-103.27 403.19,-158.81 624.42,-158.81l2.99 0c195.32,0 382.64,43.86 545.48,154.51 152.64,103.71 260.72,242.04 326.68,414.33 64.91,169.55 73.51,345.7 44.5,522.03l-679.44 0c2.77,-94.51 -23.69,-183.77 -85.78,-262.5 -81.82,-103.73 -195.9,-149.27 -326.7,-149.27l-2.99 0c-137.62,0 -258.85,50.62 -364.51,137.85 -106.46,87.9 -179.25,198.15 -207.86,333.6 -2.04,9.62 -4.05,19.24 -6.1,28.86 -0.52,2.48 -0.87,4.6 -1.15,7.12 -11.22,98.88 4.72,196.32 68.09,275.73 48.05,60.23 106.04,109.8 174.87,144.78 0.54,0.27 1,0.5 1.55,0.76 39.07,18.75 85.71,43.09 126.89,55.86 1.07,0.33 1.99,0.59 3.08,0.88 3.59,0.95 7.41,2.06 11.15,2.98 138.25,41.15 272.43,94.73 401.1,159.9 120.39,61 231.8,137.44 327.83,232.6 90.63,89.8 154.19,195.77 192.9,317.35 43.85,137.75 36.14,286.44 6.6,426.25 -46.39,219.53 -144.48,416.85 -285.15,591.5 -144.57,179.49 -317.88,323.46 -521.51,431.38 -194.61,103.14 -403.03,158.75 -623.32,158.75l-2.99 0c-195.96,0 -383.17,-42.97 -546.32,-154.39 -152.59,-104.22 -260.57,-242.89 -326.63,-415.44 -64.58,-168.68 -72.62,-345.41 -43.72,-521.02l683.2 0c-2.63,95.8 22.69,187.28 85.17,266.5 81.08,102.77 193.14,148.28 322.93,148.28l2.99 0c137.89,0 260.3,-52.66 365.93,-139.85 106.46,-87.9 181.39,-198.91 210.06,-334.6 17.88,-84.64 13.13,-171.55 -25.29,-250.02 -35.54,-72.58 -88.02,-131.89 -152.28,-180.47 -66.79,-50.48 -139.83,-92.56 -215.68,-127.84 -81.07,-37.71 -163.32,-72.81 -246.54,-105.51 -97.38,-38.25 -192.46,-81.58 -285.83,-128.74 -75.55,-38.15 -148.02,-85.87 -207.71,-146.26 -1.18,-1.18 -2.21,-2.17 -3.46,-3.28 -19.85,-17.68 -38,-42.74 -52.81,-64.66 -0.45,-0.68 -0.85,-1.24 -1.32,-1.91 -55.95,-77.66 -98.39,-163 -122.18,-255.86 -20.48,-79.97 -25.28,-162.46 -19.99,-243.58 4.5,-47.98 13.11,-96.78 23.29,-144.95 46.58,-220.42 143.02,-417.02 284.37,-592.51zm-13044.37 182.14c225.33,0 419.13,54.83 581.19,165.51 161.29,109.67 277.66,257.23 349.16,442.67 70.7,184.45 82.35,388.85 34.95,613.18 -47.61,225.33 -145.84,430.72 -294.69,616.17 -149.65,184.45 -328.38,332.01 -536.22,442.68 -208.61,109.67 -425.58,164.5 -650.92,164.5 -224.33,0 -417.14,-54.83 -580.41,-164.5 -163.06,-110.68 -279.45,-258.23 -350.15,-442.68 -71.49,-185.45 -82.93,-390.83 -35.32,-616.17 47.4,-224.33 145.42,-428.72 295.06,-613.18 148.85,-185.45 327.6,-333 537.21,-442.67 209.83,-110.68 425.8,-165.51 650.14,-165.51z"/>
   <path class="fil5" d="M8968.98 3059.49l-271.63 -732.24 -271.64 732.24 -773.11 34.77 605.24 487.32 -206.19 753.73 645.69 -431.06 645.69 431.06 -206.19 -753.73 605.24 -487.32 -773.12 -34.77zm14792.54 0l-773.12 34.77 605.24 487.32 -206.19 753.73 645.69 -431.06 645.69 431.06 -206.19 -753.73 605.24 -487.32 -773.11 -34.77 -271.64 -732.24 -271.63 732.24zm3.38 75.14c30.84,-1.38 56.41,-20.03 67.15,-48.98l201.1 -542.12 201.11 542.13c10.74,28.95 36.31,47.59 67.15,48.97l574.32 25.84 -450.26 362.52c-23.83,19.19 -33.45,48.93 -25.37,78.44l153.06 559.54 -478.25 -319.28c-25.83,-17.24 -57.7,-17.24 -83.53,0l-478.25 319.28 153.06 -559.54c8.07,-29.51 -1.54,-59.25 -25.37,-78.44l-450.26 -362.52 574.33 -25.84zm-2631.19 -358l566.93 25.8 -445.13 362.46c-23.55,19.18 -33.05,48.65 -25.11,77.97l150.96 558.16 -470.53 -317.7c-25.97,-17.53 -58.22,-17.53 -84.19,0l-470.54 317.7 150.96 -558.16c7.93,-29.32 -1.56,-58.79 -25.11,-77.97l-445.13 -362.46 566.93 -25.8c30.92,-1.4 56.54,-20.17 67.2,-49.24l197.78 -539.2 197.77 539.2c10.66,29.07 36.28,47.83 67.2,49.24zm-1297.28 -40.39l598.03 486.97 -203.72 753.21 638 -430.76 637.99 430.76 -203.72 -753.21 598.03 -486.97 -763.91 -34.75 -268.39 -731.74 -268.4 731.74 -763.91 34.75zm-5706.08 716.18l2227.49 0 2227.49 0 1315.38 -2467.06 -1555.28 462.58 -5.04 3.52c36.82,91.66 57.14,191.73 57.14,296.55 0,439.59 -356.36,795.95 -795.93,795.95 -439.59,0 -795.95,-356.36 -795.95,-795.95 0,-347.21 222.36,-642.44 532.44,-751.21l-980.24 -996.81 -980.24 996.81c310.08,108.77 532.44,404 532.44,751.21 0,439.59 -356.36,795.95 -795.95,795.95 -439.57,0 -795.93,-356.36 -795.93,-795.95 0,-104.82 20.32,-204.89 57.14,-296.55l-5.04 -3.52 -1555.28 -462.58 1315.38 2467.06zm45.14 -75.22l-1209.48 -2268.43 1313.02 390.53c-23.97,80.59 -36.1,164.27 -36.1,248.72 0,481.1 390.05,871.18 871.16,871.18 481.11,0 871.18,-390.07 871.18,-871.18 0,-331.42 -187.58,-630.22 -476.82,-776.98l849.4 -863.75 849.4 863.75c-289.24,146.76 -476.82,445.56 -476.82,776.98 0,481.11 390.07,871.18 871.18,871.18 481.11,0 871.16,-390.08 871.16,-871.18 0,-84.45 -12.13,-168.14 -36.1,-248.72l1313.02 -390.53 -1209.48 2268.43 -4364.7 0zm11.89 398.57l0 563.05 4348.49 0 0 -563.05 -4348.49 0zm75.22 487.83l0 -412.61 4198.05 0 0 412.61 -4198.05 0zm-2400.83 -2293.85l-268.39 731.74 -763.91 34.75 598.03 486.97 -203.72 753.21 637.99 -430.76 638 430.76 -203.72 -753.21 598.03 -486.97 -763.91 -34.75 -268.4 -731.74zm-264.97 806.88c30.92,-1.4 56.54,-20.17 67.2,-49.24l197.77 -539.2 197.78 539.2c10.66,29.07 36.28,47.83 67.2,49.24l566.93 25.8 -445.13 362.46c-23.55,19.18 -33.05,48.65 -25.11,77.97l150.96 558.16 -470.54 -317.7c-25.97,-17.53 -58.22,-17.53 -84.19,0l-470.53 317.7 150.96 -558.16c7.93,-29.32 -1.56,-58.79 -25.11,-77.97l-445.13 -362.46 566.93 -25.8zm-3167.7 358c30.84,-1.38 56.41,-20.03 67.15,-48.97l201.11 -542.13 201.1 542.12c10.74,28.96 36.31,47.6 67.15,48.98l574.33 25.84 -450.26 362.52c-23.83,19.19 -33.45,48.93 -25.37,78.44l153.06 559.54 -478.25 -319.28c-25.83,-17.24 -57.7,-17.24 -83.53,0l-478.25 319.28 153.06 -559.54c8.07,-29.51 -1.54,-59.25 -25.37,-78.44l-450.26 -362.52 574.32 -25.84z"/>
  </g>
 </g>
</svg>
